<svg xmlns="http://www.w3.org/2000/svg" width="1200" height="560" viewBox="0 0 1200 560" role="img" aria-labelledby="title desc">
  <title id="title">Cronloop foreground TTY architecture</title>
  <desc id="desc">A monitoring request stays in one Codex task, alternating between an evidence-driven check and a foreground TTY bash sleep.</desc>
  <defs>
    <linearGradient id="bg" x1="0" y1="0" x2="1" y2="1">
      <stop offset="0" stop-color="#07111f"/>
      <stop offset="1" stop-color="#111d35"/>
    </linearGradient>
    <linearGradient id="accent" x1="0" y1="0" x2="1" y2="0">
      <stop offset="0" stop-color="#65d7c1"/>
      <stop offset="1" stop-color="#67a6ff"/>
    </linearGradient>
    <filter id="shadow" x="-20%" y="-20%" width="140%" height="140%">
      <feDropShadow dx="0" dy="8" stdDeviation="10" flood-color="#000" flood-opacity=".28"/>
    </filter>
    <marker id="arrow" markerWidth="10" markerHeight="10" refX="8" refY="5" orient="auto">
      <path d="M0,0 L10,5 L0,10 z" fill="#71b7ff"/>
    </marker>
  </defs>
  <rect width="1200" height="560" rx="28" fill="url(#bg)"/>
  <text x="64" y="64" fill="#f5f8ff" font-family="Inter,Segoe UI,sans-serif" font-size="30" font-weight="700">Cronloop: stay in one Codex task</text>
  <text x="64" y="94" fill="#93a7c7" font-family="Inter,Segoe UI,sans-serif" font-size="16">Foreground TTY timer · full context · no cron or cold resume</text>

  <g filter="url(#shadow)" font-family="Inter,Segoe UI,sans-serif">
    <rect x="64" y="160" width="230" height="136" rx="18" fill="#172641" stroke="#2d466e"/>
    <circle cx="103" cy="201" r="19" fill="#67a6ff"/>
    <path d="M95 201h16M103 193v16" stroke="#07111f" stroke-width="3" stroke-linecap="round"/>
    <text x="90" y="248" fill="#f5f8ff" font-size="19" font-weight="700">Monitoring request</text>
    <text x="90" y="275" fill="#9fb0cb" font-size="14">“poll every 30m”</text>

    <rect x="388" y="160" width="310" height="136" rx="18" fill="#172641" stroke="#2d466e"/>
    <rect x="418" y="182" width="42" height="42" rx="9" fill="#65d7c1"/>
    <path d="M428 195h22M428 203h15M428 211h18" stroke="#07111f" stroke-width="3" stroke-linecap="round"/>
    <text x="418" y="248" fill="#f5f8ff" font-size="19" font-weight="700">Evidence-driven round</text>
    <text x="418" y="275" fill="#9fb0cb" font-size="14">health · progress · recovery · ETA</text>

    <rect x="792" y="160" width="344" height="136" rx="18" fill="#172641" stroke="#2d466e"/>
    <circle cx="832" cy="203" r="22" fill="#f7c96b"/>
    <path d="M832 189v14l10 7" fill="none" stroke="#07111f" stroke-width="3" stroke-linecap="round"/>
    <text x="824" y="248" fill="#f5f8ff" font-size="19" font-weight="700">Foreground TTY sleep</text>
    <text x="824" y="275" fill="#9fb0cb" font-size="14">bash sleep 1800 · same session ID</text>
  </g>

  <g stroke="#71b7ff" stroke-width="3" fill="none" marker-end="url(#arrow)">
    <path d="M306 228h66"/>
    <path d="M710 228h66"/>
    <path d="M964 306v92H544v-86"/>
  </g>

  <g font-family="Inter,Segoe UI,sans-serif">
    <rect x="218" y="400" width="764" height="96" rx="20" fill="#0d172a" stroke="#31517b" stroke-width="2"/>
    <rect x="218" y="400" width="8" height="96" rx="4" fill="url(#accent)"/>
    <text x="258" y="438" fill="#f5f8ff" font-size="19" font-weight="700">Timer yields, process continues</text>
    <text x="258" y="468" fill="#a7b7d1" font-size="15">exec returns a session ID → empty polls wait on that same foreground process → next round</text>
    <text x="64" y="530" fill="#7187a8" font-size="13">completion verified or user cancels → end in the current task; no scheduler cleanup required</text>
  </g>
</svg>
