<svg xmlns="http://www.w3.org/2000/svg" width="1200" height="670" viewBox="0 0 1200 670" role="img" aria-labelledby="title desc">
  <title id="title">Loop foreground TTY demonstration</title>
  <desc id="desc">Illustrative Codex output showing a monitoring round, a foreground 30-minute sleep, session polling, and the next round.</desc>
  <defs>
    <linearGradient id="frame" x1="0" y1="0" x2="1" y2="1">
      <stop offset="0" stop-color="#17253e"/>
      <stop offset="1" stop-color="#0b1425"/>
    </linearGradient>
    <filter id="shadow" x="-20%" y="-20%" width="140%" height="150%">
      <feDropShadow dx="0" dy="18" stdDeviation="20" flood-color="#020610" flood-opacity=".55"/>
    </filter>
  </defs>
  <rect width="1200" height="670" rx="28" fill="#07111f"/>
  <g filter="url(#shadow)">
    <rect x="55" y="46" width="1090" height="578" rx="18" fill="url(#frame)" stroke="#31445f"/>
    <path d="M55 102h1090" stroke="#31445f"/>
    <circle cx="88" cy="74" r="8" fill="#ff6b6b"/>
    <circle cx="116" cy="74" r="8" fill="#f7c96b"/>
    <circle cx="144" cy="74" r="8" fill="#65d7c1"/>
    <text x="600" y="80" text-anchor="middle" fill="#8093af" font-family="Inter,Segoe UI,sans-serif" font-size="14">loop — one live Codex task</text>
  </g>
  <g font-family="ui-monospace,SFMono-Regular,Consolas,monospace" font-size="17">
    <text x="84" y="143" fill="#65d7c1">$</text>
    <text x="108" y="143" fill="#edf3ff">$loop 30m monitor ./runs/exp-42 until 3 valid rounds complete</text>

    <text x="84" y="188" fill="#8093af">round 1</text>
    <text x="200" y="188" fill="#edf3ff">248/360 valid | runner healthy | progress 4m ago</text>
    <text x="84" y="226" fill="#8093af">ETA</text>
    <text x="200" y="226" fill="#f7c96b">~4h10m</text>
    <text x="420" y="226" fill="#8093af">action</text>
    <text x="520" y="226" fill="#edf3ff">none</text>

    <text x="84" y="280" fill="#67a6ff">&gt;</text>
    <text x="116" y="280" fill="#edf3ff">exec_command</text>
    <text x="280" y="280" fill="#65d7c1">bash -lc 'sleep 1800'</text>
    <text x="590" y="280" fill="#8093af">tty=true</text>

    <rect x="82" y="310" width="1036" height="168" rx="10" fill="#091322" stroke="#243957"/>
    <text x="108" y="349" fill="#8093af">00:00:30</text>
    <text x="245" y="349" fill="#edf3ff">yielded session_id=4812</text>
    <text x="650" y="349" fill="#65d7c1">sleep remains foreground</text>
    <text x="108" y="391" fill="#8093af">00:05:30</text>
    <text x="245" y="391" fill="#edf3ff">write_stdin 4812 (empty input)</text>
    <text x="650" y="391" fill="#f7c96b">still running</text>
    <text x="108" y="433" fill="#8093af">00:30:00</text>
    <text x="245" y="433" fill="#edf3ff">write_stdin 4812 (empty input)</text>
    <text x="650" y="433" fill="#65d7c1">exit 0 | timer complete</text>

    <text x="84" y="526" fill="#8093af">round 2</text>
    <text x="200" y="526" fill="#edf3ff">263/360 valid | runner healthy | 15 new cells</text>
    <text x="84" y="566" fill="#67a6ff">&gt;</text>
    <text x="116" y="566" fill="#edf3ff">start the next foreground sleep in the same task</text>

    <text x="84" y="602" fill="#7187a8">No cron. No daemon. No codex exec resume. No lost context.</text>
  </g>
</svg>
